<svg xmlns="http://www.w3.org/2000/svg" width="17.553" height="17.553" viewBox="0 0 17.553 17.553">
  <path id="Icon_feather-phone" data-name="Icon feather-phone" d="M19.719,15.392v2.492A1.663,1.663,0,0,1,17.9,19.545,16.491,16.491,0,0,1,10.723,17,16.212,16.212,0,0,1,5.73,12.012a16.416,16.416,0,0,1-2.555-7.2A1.662,1.662,0,0,1,4.831,3h2.5A1.663,1.663,0,0,1,8.992,4.429a10.647,10.647,0,0,0,.583,2.334A1.659,1.659,0,0,1,9.2,8.515L8.143,9.57a13.3,13.3,0,0,0,4.993,4.983L14.193,13.5a1.667,1.667,0,0,1,1.756-.374,10.7,10.7,0,0,0,2.339.581A1.662,1.662,0,0,1,19.719,15.392Z" transform="translate(-2.667 -2.5)" fill="none" stroke="#000" stroke-linecap="round" stroke-linejoin="round" stroke-width="1"/>
</svg>
